<svg width="44" height="50" viewBox="0 0 44 50" fill="none" xmlns="http://www.w3.org/2000/svg">
<rect width="44" height="50" rx="8" fill="url(#paint0_linear_74_34)"/>
<path d="M18 33.16V10.22C18 8.99393 18.9939 8 20.22 8V8C21.4461 8 22.44 8.99393 22.44 10.22V33.16C22.44 34.344 22.5716 35.3142 22.8347 36.0707C23.1307 36.7942 23.5747 37.3204 24.1667 37.6493C24.7587 37.9453 25.4975 38.0139 26.0566 38.1125C26.0934 38.119 26.1319 38.1203 26.1717 38.1171C27.3885 38.0189 28.1133 38.1022 28.1133 39.3229V39.3229C28.1133 40.5437 27.1233 41.5411 25.9026 41.5539C23.3632 41.5806 21.4855 41.5246 20.2693 40.412C18.7564 38.9978 18 36.5804 18 33.16Z" fill="white"/>
<defs>
<linearGradient id="paint0_linear_74_34" x1="7.52632" y1="47.2222" x2="31.5392" y2="0.625814" gradientUnits="userSpaceOnUse">
<stop stop-color="#3062FF"/>
<stop offset="1" stop-color="#8B2AFF"/>
</linearGradient>
</defs>
</svg>
